<svg width="115" height="37" viewBox="0 0 115 37" fill="none" xmlns="http://www.w3.org/2000/svg">
<g clip-path="url(#clip0_560_1478)">
<path d="M40.969 31.7061C40.969 28.7947 38.6609 26.4336 35.8148 26.4336C32.9687 26.4336 30.6606 28.7947 30.6606 31.7061C30.6606 34.6175 32.9687 36.9785 35.8148 36.9785C38.6609 36.9785 40.969 34.6194 40.969 31.708" fill="white"/>
<path d="M31.8217 19.0898C32.3192 19.0898 32.7222 19.5041 32.7222 20.013C32.7222 20.0583 32.7183 20.1057 32.7125 20.151C31.2895 29.6723 23.2082 36.9784 13.4899 36.9784H0.89663C0.401073 36.9784 0 36.5681 0 36.0612V20.009C0 19.5021 0.401073 19.0918 0.89663 19.0918H31.8198L31.8217 19.0898Z" fill="white"/>
<path d="M40.0707 17.1784H9.4542C8.95671 17.1784 8.55371 16.7662 8.55371 16.2573C8.55371 16.2001 8.5595 16.1429 8.56914 16.0876C10.2911 6.91753 18.1486 0 27.5873 0H40.0707C40.5663 0 40.9674 0.410278 40.9674 0.917209V16.2612C40.9674 16.7682 40.5663 17.1784 40.0707 17.1784Z" fill="white"/>
<path d="M52.7718 11.1722C52.9049 12.0736 53.4814 12.6023 54.5342 12.6023C55.454 12.6023 56.1057 12.1309 56.1057 11.3478C56.1057 10.7205 55.7799 10.3872 55.0703 10.1919L53.653 9.79937C52.0063 9.36739 51.0846 8.54486 51.0846 6.97673C51.0846 5.1936 52.579 4.0752 54.4764 4.0752C56.5261 4.0752 57.6753 5.29025 57.8662 6.99646H55.8146C55.776 6.38893 55.3749 5.80113 54.5304 5.80113C53.7841 5.80113 53.2847 6.21338 53.2847 6.86035C53.2847 7.46788 53.6299 7.70261 54.3183 7.89788L56.0228 8.38903C57.5558 8.82101 58.3039 9.72244 58.3039 11.1328C58.3039 13.0737 56.5029 14.3282 54.5477 14.3282C52.5925 14.3282 50.9651 13.3873 50.7163 11.1722H52.766H52.7718Z" fill="white"/>
<path d="M66.7575 4.31252H69.1716V14.3564H66.8539V12.4451C66.3757 13.5635 65.186 14.3269 63.6935 14.3269C61.3931 14.3269 60.1494 12.6029 60.1494 10.1905V4.31055H62.5636V9.79802C62.5636 11.2084 63.0996 12.2084 64.5747 12.2084C65.9534 12.2084 66.7594 11.2281 66.7594 9.81774V4.31055L66.7575 4.31252Z" fill="white"/>
<path d="M73.1938 11.1722C73.3287 12.0736 73.9034 12.6023 74.9562 12.6023C75.8759 12.6023 76.5277 12.1309 76.5277 11.3478C76.5277 10.7205 76.2018 10.3872 75.4922 10.1919L74.075 9.79937C72.4283 9.36739 71.5066 8.54486 71.5066 6.97673C71.5066 5.1936 73.0009 4.0752 74.8983 4.0752C76.948 4.0752 78.0973 5.29025 78.2901 6.99646H76.2404C76.2018 6.38893 75.8007 5.80113 74.9562 5.80113C74.208 5.80113 73.7105 6.21338 73.7105 6.86035C73.7105 7.46788 74.0557 7.70261 74.746 7.89788L76.4506 8.38903C77.9835 8.82101 78.7297 9.72244 78.7297 11.1328C78.7297 13.0737 76.9287 14.3282 74.9754 14.3282C73.0221 14.3282 71.3928 13.3873 71.144 11.1722H73.1938Z" fill="white"/>
<path d="M81.2617 1.39062H83.6758V4.30991H86.1478V6.3475H83.6758V10.7955C83.6758 11.8152 84.0596 12.265 84.9986 12.265C85.3573 12.261 85.7121 12.2019 86.0534 12.0894V14.0698C85.5057 14.2355 84.9388 14.3223 84.3681 14.3243C82.1082 14.3243 81.2636 12.9336 81.2636 10.6791V6.3475H79.4819V4.30991H81.2636V1.39062H81.2617Z" fill="white"/>
<path d="M98.0429 4.31188V14.3558H95.7252V12.405C95.1699 13.4051 93.9049 14.3262 92.2389 14.3262C89.4044 14.3262 87.4106 12.0125 87.4106 9.21154C87.4106 6.41061 89.4044 4.07715 92.2389 4.07715C93.9069 4.07715 95.2084 4.95885 95.6866 5.99836V4.31385H98.0429V4.31188ZM92.6979 12.2886C94.2887 12.2886 95.6288 11.0933 95.6288 9.21154C95.6288 7.32979 94.2867 6.11473 92.6979 6.11473C90.974 6.11473 89.8248 7.50534 89.8248 9.21154C89.8248 10.9177 90.974 12.2886 92.6979 12.2886Z" fill="white"/>
<path d="M101.973 0.000365473C102.75 -0.017387 103.392 0.61381 103.409 1.40872C103.409 1.42253 103.409 1.43634 103.409 1.45015C103.398 2.26281 102.746 2.91176 101.951 2.89993C101.172 2.88809 100.546 2.24703 100.534 1.45015C100.534 0.649315 101.17 -0.00160702 101.953 0.000365473C101.959 0.000365473 101.965 0.000365473 101.971 0.000365473M100.764 4.31223H103.178V14.3285H100.764V4.31223Z" fill="white"/>
<path d="M108.313 14.3268H105.898V4.3125H108.235V6.21398C108.675 5.07783 109.921 4.3125 111.415 4.3125C113.714 4.3125 114.998 6.03843 114.998 8.46854V14.3288H112.584V8.88079C112.584 7.49018 111.97 6.47041 110.534 6.47041C109.211 6.47041 108.311 7.45073 108.311 8.86107V14.3288L108.313 14.3268Z" fill="white"/>
<path d="M53.1114 36.9613H50.6973V20.3135H53.1114V28.7695C53.6282 27.6137 54.7408 26.947 56.2159 26.947C58.5143 26.947 59.7985 28.6729 59.7985 31.103V36.9633H57.3844V31.5153C57.3844 30.1247 56.7712 29.1049 55.3347 29.1049C54.0312 29.1049 53.1114 30.0655 53.1114 31.4955V36.9633V36.9613Z" fill="white"/>
<path d="M64.1275 32.6669C64.2798 34.1364 65.1996 35.1364 66.9061 35.1364C68.0746 35.1364 68.9751 34.6078 69.434 33.8622H71.6746C71.0229 35.6059 69.1834 36.959 66.9042 36.959C63.6474 36.959 61.75 34.7439 61.75 31.8246C61.75 28.9053 63.8383 26.71 66.7885 26.71C69.7387 26.71 71.8077 28.8462 71.8077 31.8661V32.6689H64.1256L64.1275 32.6669ZM64.1082 31.0396H69.5111C69.3588 29.5306 68.3812 28.4734 66.829 28.4734C65.2767 28.4734 64.3011 29.4537 64.1082 31.0416" fill="white"/>
<path d="M88.9766 20.3115H86.5625V36.9594H88.9766V20.3115Z" fill="white"/>
<path d="M101.487 36.9613H99.0728V20.3135H101.487V28.7695C102.004 27.6137 103.116 26.947 104.591 26.947C106.89 26.947 108.174 28.6729 108.174 31.103V36.9633H105.76V31.5153C105.76 30.1247 105.147 29.1049 103.71 29.1049C102.407 29.1049 101.487 30.0655 101.487 31.4955V36.9633V36.9613Z" fill="white"/>
<path d="M114.906 34.709C114.906 33.4427 113.903 32.417 112.665 32.417C111.427 32.417 110.424 33.4427 110.424 34.709C110.424 35.9754 111.427 37.0011 112.665 37.0011C113.903 37.0011 114.906 35.9754 114.906 34.709Z" fill="white"/>
<path d="M83.9189 26.9154V36.9593H81.6012V35.0085C81.0458 36.0086 79.7809 36.9297 78.1149 36.9297C75.2804 36.9297 73.2866 34.616 73.2866 31.8151C73.2866 29.0141 75.2804 26.6807 78.1149 26.6807C79.7828 26.6807 81.0844 27.5624 81.5626 28.6019V26.9174H83.9189V26.9154ZM78.5738 34.8921C80.1646 34.8921 81.5048 33.6968 81.5048 31.8151C81.5048 29.9333 80.1627 28.7182 78.5738 28.7182C76.85 28.7182 75.7008 30.1089 75.7008 31.8151C75.7008 33.5213 76.85 34.8921 78.5738 34.8921Z" fill="white"/>
<path d="M92.4453 24.0254H94.8594V26.9447H97.3314V28.9823H94.8594V33.4302C94.8594 34.45 95.2432 34.8997 96.1822 34.8997C96.5409 34.8958 96.8957 34.8366 97.237 34.7242V36.7046C96.6893 36.8703 96.1224 36.957 95.5517 36.959C93.2918 36.959 92.4472 35.5684 92.4472 33.3139V28.9823H90.6655V26.9447H92.4472V24.0254H92.4453Z" fill="white"/>
</g>
<defs>
<clipPath id="clip0_560_1478">
<rect width="115" height="37" fill="white"/>
</clipPath>
</defs>
</svg>
